Land_normalized_Motion_pl07
version=1
nRows=18
nColumns=43
inDegrees=yes
endheader
time		pelvis_tilt		pelvis_list		pelvis_rotation		pelvis_tx		pelvis_ty		pelvis_tz		hip_flexion_r		hip_adduction_r		hip_rotation_r		knee_angle_r		ankle_angle_r		subtalar_angle_r		mtp_angle_r		hip_flexion_l		hip_adduction_l		hip_rotation_l		knee_angle_l		ankle_angle_l		subtalar_angle_l		mtp_angle_l		lumbar_extension		lumbar_bending		lumbar_rotation		neck_flexion		neck_lateral_bending		neck_rotation		arm_flex_r		arm_add_r		arm_rot_r		elbow_flex_r		pro_sup_r		wrist_flex_r		wrist_dev_r		hand_finger_flex_r		arm_flex_l		arm_add_l		arm_rot_l		elbow_flex_l		pro_sup_l		wrist_flex_l		wrist_dev_l		hand_finger_flex_l		
0.905000		-4.693341		13.933914		95.351746		-0.016290		1.012682		0.522132		16.178878		-8.879191		-13.942851		-27.305075		-26.486286		-3.567440		21.618467		16.328580		0.860649		-10.156098		-24.148364		-22.615518		-12.681254		33.628554		-45.766709		-0.094311		-2.389943		-32.329906		0.961773		-2.684822		-59.733434		-13.012293		-41.631513		67.928460		76.735451		-28.538430		-3.708350		45.358422		-65.289706		-18.117352		-36.634261		73.398307		-81.610422		-18.275395		-7.367949		-90.000210		
0.907652		-4.757249		14.341418		95.393836		-0.016501		1.002290		0.517937		16.272784		-8.989492		-13.776695		-28.557796		-26.740838		-3.546777		21.667621		16.533761		0.840910		-10.079171		-25.522020		-22.693885		-12.696824		33.650919		-46.326579		-0.080164		-2.479187		-32.079746		0.905351		-2.676922		-59.153121		-13.506140		-41.724639		67.878081		76.788804		-28.609394		-3.691847		45.336625		-64.727832		-18.488602		-36.594386		73.435850		-81.601174		-18.269855		-7.411568		-90.000210		
0.910303		-4.830210		14.515864		95.460418		-0.016574		0.990888		0.514528		16.813627		-9.101856		-13.344033		-30.042237		-26.937320		-3.598077		21.877793		17.214594		0.863660		-9.776077		-27.285159		-22.374552		-12.797265		33.730218		-46.804848		-0.079328		-2.618035		-30.937350		0.808674		-2.660163		-58.642273		-13.969164		-41.753980		68.174384		77.026839		-28.758722		-3.618784		45.297653		-64.246934		-18.888027		-36.595402		73.712366		-81.567344		-18.362517		-7.439030		-90.000210		
0.912955		-4.763659		14.153439		95.463059		-0.016736		0.978461		0.510857		18.061318		-9.091158		-12.717301		-31.733985		-27.197954		-3.828289		22.440050		18.561936		0.817855		-9.341932		-29.215615		-22.086609		-12.856009		33.820576		-46.571516		-0.023195		-2.665872		-30.503424		0.731956		-2.653709		-58.092598		-14.483681		-41.816147		68.371933		77.534896		-29.068577		-3.314521		45.151138		-63.639558		-19.254036		-36.662449		73.822092		-81.411881		-18.609983		-7.521830		-90.000210		
0.915606		-4.829192		14.529621		95.518037		-0.016805		0.967498		0.507125		18.334718		-9.162447		-12.327424		-33.148826		-27.502175		-3.779513		22.546460		18.951125		0.819704		-9.143526		-30.909749		-22.093276		-12.870956		33.869033		-47.205185		-0.009715		-2.765541		-29.709111		0.673241		-2.670568		-57.492176		-15.072343		-41.775652		68.564177		77.645612		-29.063051		-3.305761		45.087277		-63.043189		-19.759602		-36.594246		74.029180		-81.348781		-18.695130		-7.513714		-90.000210		
0.918258		-4.804452		14.612322		95.510026		-0.016826		0.955792		0.503460		19.035772		-9.110455		-11.710802		-34.706981		-27.554819		-3.755849		22.809489		19.765047		0.762211		-8.872410		-32.792146		-22.062461		-12.866434		33.970545		-47.502415		0.025895		-2.773480		-28.993410		0.609377		-2.702433		-56.895540		-15.661794		-41.761286		68.806037		77.837702		-29.099712		-3.221963		44.873855		-62.380681		-20.255930		-36.582904		74.216505		-81.156096		-18.927132		-7.462654		-90.000210		
0.920909		-4.695558		14.410406		95.448774		-0.016834		0.943415		0.499903		20.152018		-8.947872		-10.912890		-36.414117		-27.264443		-3.744362		23.260872		20.977774		0.647160		-8.581647		-34.803609		-22.061515		-12.829795		34.122573		-47.481646		0.086401		-2.702732		-28.344302		0.533671		-2.744657		-56.305182		-16.290955		-41.740771		69.069578		78.104315		-29.123612		-3.069242		44.515627		-61.653973		-20.769746		-36.570983		74.390491		-80.814385		-19.325101		-7.358622		-90.000210		
0.923561		-4.653625		14.745957		95.492803		-0.016769		0.932101		0.496346		20.556455		-8.792262		-10.281106		-38.015506		-26.494407		-3.711736		23.501438		21.516841		0.569226		-8.288786		-36.648174		-22.200691		-12.770343		34.192251		-48.095341		0.180420		-2.721755		-27.407969		0.462879		-2.756341		-55.664358		-17.008187		-41.599108		69.355668		78.221741		-29.053578		-3.071373		44.401951		-60.973930		-21.398417		-36.449959		74.677798		-80.678370		-19.480800		-7.302046		-90.000210		
0.926212		-4.539452		14.964976		95.477374		-0.016591		0.920400		0.492874		21.150151		-8.506396		-9.526292		-39.813732		-24.817034		-3.611516		23.868352		22.256915		0.439809		-7.925981		-38.621653		-22.121520		-12.716422		34.294368		-48.582734		0.286690		-2.656250		-26.436553		0.395227		-2.763361		-55.024451		-17.725974		-41.470727		69.697172		78.352687		-29.003615		-3.068528		44.253092		-60.252056		-22.043129		-36.350924		74.977303		-80.489974		-19.685054		-7.223463		-90.000210		
0.928864		-4.403734		14.708151		95.390605		-0.016439		0.907654		0.489306		22.387787		-8.251921		-8.683953		-41.984200		-22.026233		-2.657093		24.350324		23.595184		0.320812		-7.597527		-40.794549		-21.492343		-12.398702		34.495038		-48.486961		0.330369		-2.545136		-25.794048		0.333495		-2.794359		-54.390460		-18.431945		-41.372163		70.020996		78.515496		-28.932100		-3.021488		43.927545		-59.465620		-22.708525		-36.257899		75.184855		-79.996915		-20.101182		-7.037778		-90.000210		
0.931515		-4.282712		14.621713		95.324822		-0.016252		0.895265		0.485872		23.430093		-7.950868		-7.906727		-44.271338		-18.743272		-2.164915		24.809319		24.725305		0.239032		-7.197352		-42.950172		-20.557249		-12.241162		34.677326		-48.626868		0.385907		-2.455670		-24.955578		0.272048		-2.799620		-53.720522		-19.207118		-41.211083		70.383657		78.668079		-28.826898		-3.002482		43.669751		-58.656691		-23.413711		-36.130548		75.443345		-79.562752		-20.442273		-6.867265		-90.000210		
0.934167		-4.148165		14.534172		95.281461		-0.016150		0.882760		0.482340		24.482585		-7.689695		-7.305418		-46.796218		-14.581559		-1.181557		24.993217		25.865102		0.156387		-6.771301		-45.234457		-18.745941		-11.710245		34.781681		-48.730429		0.468731		-2.388634		-24.191084		0.250159		-2.789079		-53.039304		-20.004060		-41.059336		70.778017		78.799110		-28.710375		-3.004343		43.448145		-57.855083		-24.125790		-35.982075		75.721253		-79.038777		-20.741357		-6.656715		-90.000210		
0.936818		-4.022015		14.420529		95.249816		-0.016136		0.870156		0.478791		25.582135		-7.476238		-6.852888		-49.506061		-9.937785		-0.147668		24.700843		27.043049		0.106495		-6.339865		-47.661566		-16.126303		-11.024253		34.683076		-48.796933		0.553903		-2.331254		-23.453441		0.239874		-2.770421		-52.344121		-20.833819		-40.897982		71.183256		78.925148		-28.586295		-2.998479		43.230131		-57.025127		-24.854412		-35.821147		76.009824		-78.398936		-21.034709		-6.381648		-90.000210		
0.939470		-3.988691		14.721923		95.245174		-0.016063		0.858534		0.475549		26.173934		-7.244444		-6.503983		-52.091107		-5.845646		-0.577532		24.765595		27.713186		0.174667		-5.923115		-50.051227		-13.441583		-11.337438		34.708281		-49.424445		0.603016		-2.311116		-22.265432		0.198114		-2.738096		-51.579788		-21.747415		-40.630194		71.620137		79.039079		-28.477906		-3.021848		43.181404		-56.142282		-25.666037		-35.596500		76.383971		-78.152754		-21.166932		-6.276333		-90.000210		
0.942121		-3.808281		14.525207		95.275926		-0.015987		0.845612		0.472076		27.474299		-7.060695		-6.483690		-55.133313		-0.868237		0.029036		20.156573		29.044976		0.077624		-5.499072		-52.857450		-9.008398		-9.601816		31.536006		-49.390434		0.764011		-2.291096		-21.553515		0.188507		-2.748068		-50.842069		-22.564386		-40.480993		72.159585		79.087470		-28.565736		-3.024904		43.261883		-55.276207		-26.371828		-35.520288		76.683857		-77.079365		-21.479077		-5.765568		-90.000210		
0.944773		-3.740506		14.805766		95.251124		-0.016324		0.833979		0.468613		28.182266		-7.004086		-6.468553		-57.929579		3.298922		0.616019		19.268504		29.696647		0.134162		-5.188488		-55.442148		-5.132707		-9.532494		30.732141		-49.901353		0.865116		-2.229108		-20.754947		0.218151		-2.709134		-50.036773		-23.574847		-40.245486		72.562687		79.151310		-28.566053		-2.998529		43.354850		-54.299098		-27.189272		-35.180779		77.037166		-76.939985		-21.563806		-5.722118		-90.000210		
0.947424		-3.817632		15.260349		95.289794		-0.016454		0.822875		0.465549		28.793803		-7.037101		-6.497021		-60.676861		6.215611		-0.237860		19.401275		30.156158		0.335414		-4.987977		-57.945728		-1.827709		-10.359763		30.787048		-50.720105		0.873244		-2.282874		-19.527719		0.213324		-2.705064		-49.141512		-24.610962		-39.898673		72.993833		79.246097		-28.496099		-3.002894		43.402295		-53.269237		-28.106691		-34.864506		77.428220		-76.932117		-21.631935		-5.751469		-90.000210		
0.950076		-3.653347		15.110669		95.278354		-0.016434		0.810301		0.462312		30.277412		-6.940138		-6.628693		-63.713654		9.294456		-0.304187		17.805118		31.405879		0.311760		-4.588806		-60.750263		2.532032		-9.025136		28.950015		-50.744478		0.999419		-2.199879		-18.832118		0.194286		-2.720091		-48.288751		-25.618343		-39.558025		73.489818		79.199472		-28.840178		-2.819698		43.761119		-52.242659		-28.985867		-34.603339		77.782499		-76.928466		-21.842560		-5.985088		-90.000210		
